<?xml version="1.0" standalone="no"?>
<!DOCTYPE svg PUBLIC "-//W3C//DTD SVG 20010904//EN"
 "http://www.w3.org/TR/2001/REC-SVG-20010904/DTD/svg10.dtd">
<svg version="1.0" xmlns="http://www.w3.org/2000/svg"
 width="1280.000000pt" height="1147.000000pt" viewBox="0 0 1280.000000 1147.000000"
 preserveAspectRatio="xMidYMid meet">
<metadata>
Created by potrace 1.15, written by Peter Selinger 2001-2017
</metadata>
<g transform="translate(0.000000,1147.000000) scale(0.100000,-0.100000)"
fill="#3f51b5" stroke="none">
<path d="M4410 11344 c-401 -411 -922 -1106 -1236 -1645 -98 -168 -244 -468
-284 -583 -96 -278 -108 -443 -43 -606 155 -385 796 -1176 1796 -2217 139
-143 254 -261 257 -262 3 -1 43 90 89 202 422 1019 916 2108 1188 2621 197
372 237 428 455 642 461 452 1098 854 1352 854 25 0 46 4 46 9 0 33 -565 243
-1355 504 -995 328 -1869 582 -2075 603 l-65 6 -125 -128z"/>
<path d="M8272 10205 c-266 -48 -485 -173 -822 -470 -122 -107 -346 -335 -484
-493 -96 -110 -106 -126 -94 -142 7 -9 74 -98 148 -196 429 -569 680 -1045
680 -1294 0 -115 -26 -157 -164 -265 -149 -115 -316 -206 -480 -260 -56 -18
-94 -36 -86 -39 820 -302 2128 -776 2138 -774 18 4 1582 2163 1569 2165 -7 2
-169 -35 -362 -81 -253 -61 -352 -81 -357 -73 -4 7 -8 35 -8 62 0 77 -38 391
-70 580 -71 420 -180 728 -308 866 -42 45 -86 77 -188 135 -272 153 -501 246
-689 278 -109 19 -321 19 -423 1z"/>
<path d="M1840 7000 c-509 -82 -1089 -174 -1290 -206 -201 -31 -368 -60 -372
-63 -4 -3 135 -93 308 -199 173 -107 314 -197 314 -200 0 -4 -23 -34 -52 -67
-94 -109 -249 -308 -343 -440 -247 -345 -391 -647 -402 -840 -4 -74 -1 -94 46
-252 120 -408 231 -628 411 -813 287 -294 647 -400 1360 -400 196 0 566 16
577 24 2 2 12 74 23 162 105 807 287 1377 488 1531 68 52 106 58 258 39 209
-26 385 -79 543 -163 45 -24 81 -40 80 -35 -2 5 -220 474 -483 1041 l-479
1031 -31 -1 c-17 -1 -447 -68 -956 -149z"/>
<path d="M8693 5779 c424 -1011 904 -2274 1085 -2859 125 -402 142 -493 142
-770 0 -625 -164 -1377 -345 -1588 -32 -37 -34 -42 -16 -42 140 0 2216 1045
2952 1486 202 121 277 176 285 211 10 37 -3 384 -21 593 -82 932 -276 1811
-497 2255 -114 228 -219 349 -362 416 -355 166 -1414 279 -2855 306 -321 5
-374 4 -368 -8z"/>
<path d="M5190 4199 c-1343 -550 -2567 -991 -2950 -1060 -95 -17 -508 -18
-670 0 -602 64 -1082 194 -1227 334 -18 17 -36 27 -40 23 -64 -63 1402 -2925
1641 -3202 33 -39 39 -41 103 -47 216 -17 896 47 1410 133 1027 173 1642 420
1794 722 147 291 245 1017 299 2208 15 334 25 1040 14 1039 -5 0 -173 -68
-374 -150z"/>
<path d="M6876 3309 c-566 -263 -1031 -481 -1034 -484 -7 -7 -4 -26 168 -1105
83 -520 172 -1081 198 -1247 26 -167 49 -303 52 -303 3 0 87 134 187 298 100
163 188 306 196 316 14 19 15 19 50 -10 535 -446 927 -691 1217 -759 123 -28
172 -21 466 71 412 127 666 294 843 554 147 214 207 421 241 825 19 235 5 901
-20 928 -4 5 -75 17 -156 28 -392 50 -806 136 -1054 220 -288 97 -448 197
-506 316 l-27 55 11 112 c24 220 72 392 158 564 28 56 48 102 45 101 -3 0
-469 -216 -1035 -480z"/>
</g>
</svg>
