<?xml version="1.0" standalone="no"?>
<!DOCTYPE svg PUBLIC "-//W3C//DTD SVG 20010904//EN"
 "http://www.w3.org/TR/2001/REC-SVG-20010904/DTD/svg10.dtd">
<svg version="1.0" xmlns="http://www.w3.org/2000/svg"
 width="1280.000000pt" height="693.000000pt" viewBox="0 0 1280.000000 693.000000"
 preserveAspectRatio="xMidYMid meet">
<metadata>
Created by potrace 1.15, written by Peter Selinger 2001-2017
</metadata>
<g transform="translate(0.000000,693.000000) scale(0.100000,-0.100000)"
fill="#3f51b5" stroke="none">
<path d="M715 6811 c-133 -22 -229 -69 -273 -134 -32 -47 -40 -113 -52 -422
-34 -884 -47 -1690 -55 -3480 -7 -1573 5 -1410 -111 -1506 -91 -75 -108 -105
-101 -179 7 -77 24 -111 67 -131 39 -19 481 -56 525 -45 36 9 56 46 65 123 10
82 -2 117 -54 156 -52 40 -49 74 20 249 122 309 173 393 233 386 43 -5 38 -44
-19 -150 -64 -121 -95 -211 -115 -340 -9 -57 -21 -131 -26 -165 -10 -55 -8
-73 16 -170 69 -275 157 -436 326 -597 298 -284 709 -369 1099 -227 294 108
533 354 634 655 27 79 44 172 55 299 6 65 13 122 16 127 13 22 45 -13 88 -98
54 -103 66 -115 132 -134 43 -12 53 -20 74 -57 34 -63 68 -74 209 -69 125 4
123 3 185 92 l18 26 457 -1 c251 -1 698 -4 992 -8 587 -7 563 -4 594 -68 39
-81 190 -83 231 -4 35 69 -68 65 1292 51 992 -11 1241 -11 1305 0 62 10 81 10
93 0 8 -7 27 -51 41 -99 59 -196 142 -333 288 -476 150 -147 312 -235 518
-282 94 -21 317 -23 413 -4 406 81 728 382 832 780 20 78 26 129 30 269 3 95
9 174 12 177 11 6 24 -7 54 -52 16 -26 38 -45 54 -49 31 -8 400 12 487 26 99
16 157 37 246 90 103 61 144 75 291 100 155 27 194 26 224 -5 14 -13 25 -29
25 -34 0 -21 -47 -39 -120 -46 -41 -4 -87 -14 -102 -21 -33 -17 -51 -70 -46
-139 5 -78 0 -77 368 -70 173 3 334 8 357 11 64 8 83 38 83 131 0 40 -6 88
-14 106 -7 18 -53 68 -101 112 -48 44 -94 95 -102 113 -14 33 -21 99 -163
1502 -44 437 -83 815 -86 839 -10 66 -37 88 -120 96 -93 10 -1017 211 -1058
230 -17 8 -39 28 -48 43 -16 28 -293 881 -393 1212 -64 212 -87 266 -145 345
-231 312 -614 537 -1137 668 -226 57 -534 104 -793 122 -175 12 -187 14 -242
53 l-53 37 -945 7 c-520 3 -1838 11 -2930 17 -1092 6 -2347 13 -2790 15 -443
3 -828 1 -855 -3z"/>
</g>
</svg>
