<?xml version="1.0" standalone="no"?>
<!DOCTYPE svg PUBLIC "-//W3C//DTD SVG 20010904//EN"
 "http://www.w3.org/TR/2001/REC-SVG-20010904/DTD/svg10.dtd">
<svg version="1.0" xmlns="http://www.w3.org/2000/svg"
 width="1280.000000pt" height="866.000000pt" viewBox="0 0 1280.000000 866.000000"
 preserveAspectRatio="xMidYMid meet">
<metadata>
Created by potrace 1.15, written by Peter Selinger 2001-2017
</metadata>
<g transform="translate(0.000000,866.000000) scale(0.100000,-0.100000)"
fill="#3f51b5" stroke="none">
<path d="M6375 8429 c-185 -26 -342 -117 -516 -296 -145 -150 -224 -264 -300
-434 -50 -111 -112 -300 -124 -379 -7 -43 -11 -48 -93 -105 -203 -141 -418
-398 -546 -653 -49 -97 -62 -162 -81 -387 -8 -104 -22 -224 -30 -265 -32 -160
-208 -624 -241 -637 -7 -2 -26 3 -43 11 -17 9 -55 16 -89 16 -42 0 -63 5 -72
16 -8 8 -16 52 -20 97 -8 96 -23 133 -61 153 -32 16 -96 18 -133 4 -18 -7 -35
-5 -60 5 -56 24 -119 19 -154 -10 -23 -19 -41 -25 -78 -25 -63 0 -105 -25
-139 -83 -19 -34 -30 -44 -44 -40 -57 15 -141 -75 -149 -160 -4 -45 -17 -70
-101 -192 -91 -133 -272 -408 -373 -569 -46 -72 -50 -75 -93 -82 -26 -3 -69
-3 -98 0 -198 25 -1158 161 -1194 169 -8 2 -16 -17 -253 -593 -98 -239 -354
-864 -569 -1389 -321 -782 -390 -957 -379 -967 7 -7 229 -139 494 -293 l480
-279 200 8 c610 27 716 31 721 26 3 -3 -6 -85 -21 -182 -15 -97 -24 -180 -19
-184 9 -9 1015 -310 1036 -310 7 0 319 149 692 330 373 182 681 330 685 330 4
0 -6 -37 -22 -82 -37 -103 -58 -200 -98 -440 -30 -184 -78 -380 -119 -488 -12
-30 -21 -58 -21 -62 0 -5 800 -8 1778 -8 l1779 0 12 128 c18 200 25 497 13
592 -6 47 -27 141 -47 209 -20 68 -35 127 -33 132 2 5 46 -19 98 -54 68 -45
248 -134 635 -314 l540 -251 210 8 c116 5 312 12 437 16 125 4 233 11 240 15
10 6 14 66 18 248 3 132 8 242 12 246 6 6 678 -3 1608 -21 l315 -6 255 165
255 165 0 248 0 249 -153 395 c-265 681 -1056 2743 -1075 2801 -5 14 -28 18
-134 24 -223 13 -477 -3 -898 -57 -15 -2 -51 42 -160 193 -196 274 -264 358
-351 436 -51 46 -84 84 -100 119 -36 77 -96 139 -167 173 -59 29 -65 30 -137
21 -41 -5 -102 -9 -136 -10 -34 0 -96 -11 -144 -25 -46 -14 -94 -25 -107 -25
-12 0 -36 -12 -53 -27 -26 -23 -32 -38 -37 -86 -5 -49 -3 -63 15 -86 l21 -29
-47 -17 c-60 -23 -109 -55 -146 -93 -40 -43 -44 -96 -12 -201 31 -100 34 -193
11 -366 -26 -199 -83 -455 -85 -380 0 11 -7 79 -15 150 -8 72 -15 164 -15 205
0 108 -13 145 -73 205 -91 90 -234 143 -531 196 -93 16 -174 33 -180 37 -6 4
-55 9 -108 12 -53 3 -100 9 -104 13 -4 4 0 96 9 204 38 443 42 539 42 1023 0
353 -4 525 -13 600 -71 560 -227 959 -429 1101 -63 44 -165 78 -252 86 -36 3
-101 16 -143 29 -130 40 -266 51 -393 33z m3420 -3174 c40 -60 103 -164 139
-230 l65 -120 -217 -36 c-119 -20 -219 -35 -221 -33 -2 2 9 65 25 141 30 147
34 250 14 348 -11 53 -10 56 17 91 l27 37 39 -44 c22 -24 72 -93 112 -154z
m-5070 -29 c-26 -100 -29 -104 -58 -110 -17 -3 -31 -5 -32 -4 -5 6 108 228
113 223 3 -2 -8 -51 -23 -109z m4770 37 c-12 -105 -66 -299 -124 -445 l-10
-27 -48 14 c-26 9 -58 18 -70 21 -29 8 -29 11 2 209 36 234 26 210 99 229 34
8 82 24 107 35 24 11 45 20 47 20 2 1 0 -25 -3 -56z m-6025 -156 c0 -7 -16
-55 -36 -107 -20 -52 -70 -192 -111 -310 -41 -118 -76 -216 -77 -218 -5 -4
-194 -31 -223 -32 -21 0 -17 10 44 108 170 276 382 584 396 575 4 -2 7 -10 7
-16z m6065 -44 c-12 -74 -46 -238 -56 -270 -10 -31 -31 -43 -43 -25 -3 5 14
67 38 138 24 71 47 144 51 162 9 44 17 40 10 -5z m-5921 -158 c-3 -55 -9 -165
-13 -245 l-6 -145 -42 -3 -43 -3 0 83 c0 105 15 230 41 333 28 113 25 108 49
93 18 -12 19 -20 14 -113z m247 5 c40 -6 84 -13 96 -15 l22 -5 -25 -68 c-14
-37 -36 -112 -48 -167 l-21 -100 -40 -6 c-22 -4 -66 -10 -97 -14 l-58 -6 0
178 c0 98 3 194 6 214 l6 37 42 -19 c23 -10 76 -23 117 -29z m225 -58 c10 -7
4 -256 -8 -267 -3 -3 -28 -8 -57 -12 -40 -4 -51 -3 -51 8 1 34 43 179 66 227
26 53 31 57 50 44z m-646 -133 c-5 -41 -10 -108 -10 -150 l0 -76 -42 -6 c-24
-3 -44 -4 -46 -2 -2 2 19 74 48 160 29 86 54 154 56 152 2 -2 0 -37 -6 -78z
m1565 -3006 c-21 -74 -53 -128 -104 -178 l-41 -39 0 125 0 126 78 14 c42 8 79
13 80 12 2 -1 -4 -28 -13 -60z"/>
</g>
</svg>
